<svg xmlns="http://www.w3.org/2000/svg" viewBox="0 0 64 64" fill="none" stroke="#FFFFFF" stroke-width="2" stroke-linecap="round" stroke-linejoin="round">
  <!-- Left hemisphere -->
  <path d="M30 18c-2.5-2.5-7-2.5-9 0-2 .5-3.5 2.5-3.5 5 0 1-1 1.5-1.5 2.5-1 1.5-1 3.5 0 5-1 1-1 3 0 4.5-.5 1.5 0 3.5 1.5 4.5-.5 2 .5 4 2.5 5 1 2 4 3 6.5 2 1 .5 2 .5 3 .5"/>
  <!-- Right hemisphere -->
  <path d="M34 18c2.5-2.5 7-2.5 9 0 2 .5 3.5 2.5 3.5 5 0 1 1 1.5 1.5 2.5 1 1.5 1 3.5 0 5 1 1 1 3 0 4.5.5 1.5 0 3.5-1.5 4.5.5 2-.5 4-2.5 5-1 2-4 3-6.5 2-1 .5-2 .5-3 .5"/>
  <!-- Central divider -->
  <line x1="32" y1="18" x2="32" y2="47"/>
  <!-- Inner brain folds (left) -->
  <path d="M24 24c2 1 3 3 2 5"/>
  <path d="M22 32c2 0 3 1 3 3"/>
  <path d="M24 40c1.5-1 3-1 4 0"/>
  <!-- Inner brain folds (right) -->
  <path d="M40 24c-2 1-3 3-2 5"/>
  <path d="M42 32c-2 0-3 1-3 3"/>
  <path d="M40 40c-1.5-1-3-1-4 0"/>
  <!-- LLM chip -->
  <rect x="24" y="28" width="16" height="10" rx="1.5" fill="#FFFFFF" stroke="none"/>
  <text x="32" y="36" font-family="Arial, sans-serif" font-size="6.5" font-weight="700" fill="#000000" text-anchor="middle">LLM</text>
  <!-- Circuit traces — left side -->
  <line x1="14" y1="24" x2="8" y2="20"/>
  <line x1="13" y1="32" x2="6" y2="32"/>
  <line x1="14" y1="42" x2="8" y2="46"/>
  <!-- Circuit traces — right side -->
  <line x1="50" y1="24" x2="56" y2="20"/>
  <line x1="51" y1="32" x2="58" y2="32"/>
  <line x1="50" y1="42" x2="56" y2="46"/>
  <!-- Circuit traces — top -->
  <line x1="26" y1="17" x2="22" y2="11"/>
  <line x1="38" y1="17" x2="42" y2="11"/>
  <!-- Circuit traces — bottom -->
  <line x1="28" y1="48" x2="26" y2="54"/>
  <line x1="36" y1="48" x2="38" y2="54"/>
  <!-- Terminal nodes (open circles) -->
  <circle cx="7" cy="19.5" r="2" fill="none"/>
  <circle cx="5" cy="32" r="2" fill="none"/>
  <circle cx="7" cy="46.5" r="2" fill="none"/>
  <circle cx="57" cy="19.5" r="2" fill="none"/>
  <circle cx="59" cy="32" r="2" fill="none"/>
  <circle cx="57" cy="46.5" r="2" fill="none"/>
  <circle cx="21" cy="10" r="2" fill="none"/>
  <circle cx="43" cy="10" r="2" fill="none"/>
  <circle cx="25.5" cy="55" r="2" fill="none"/>
  <circle cx="38.5" cy="55" r="2" fill="none"/>
</svg>
